<?xml version="1.0" standalone="no"?>
<!DOCTYPE svg PUBLIC "-//W3C//DTD SVG 20010904//EN"
 "http://www.w3.org/TR/2001/REC-SVG-20010904/DTD/svg10.dtd">
<svg version="1.0" xmlns="http://www.w3.org/2000/svg"
 width="409.000000pt" height="79.000000pt" viewBox="0 0 409.000000 79.000000"
 preserveAspectRatio="xMidYMid meet">

<g transform="translate(0.000000,79.000000) scale(0.100000,-0.100000)"
fill="#000000" stroke="none">
<path d="M43 768 c-12 -6 -24 -20 -27 -32 -9 -32 -7 -576 2 -576 4 0 38 34 75
75 38 41 74 75 81 75 7 0 21 -9 31 -20 24 -26 33 -18 107 94 l58 88 0 130 c0
124 -1 130 -25 153 -23 24 -29 25 -152 24 -70 0 -138 -5 -150 -11z"/>
<path d="M450 760 c-18 -18 -20 -33 -20 -159 0 -136 0 -139 25 -155 35 -23
223 -23 268 1 53 27 56 38 57 171 0 166 4 162 -175 162 -122 0 -137 -2 -155
-20z"/>
<path d="M3692 463 l3 -298 53 -1 52 -1 0 143 c0 86 5 153 11 168 24 52 114
52 138 0 6 -15 11 -82 11 -167 l0 -142 49 -1 48 -1 1 164 c0 89 -3 163 -8 163
-4 0 -6 10 -2 22 3 13 1 19 -5 15 -6 -4 -10 1 -9 11 0 9 -5 16 -12 14 -8 -1
-11 2 -7 7 8 14 -34 39 -70 42 -59 4 -84 -1 -113 -26 -16 -13 -32 -22 -36 -18
-3 4 -3 51 0 105 l7 98 -57 0 -56 0 2 -297z"/>
<path d="M1217 743 c-9 -9 -9 -556 1 -568 4 -5 28 -10 55 -10 l47 0 0 205 c0
122 4 200 9 195 5 -6 37 -75 70 -155 34 -80 66 -152 70 -160 11 -20 65 -25 82
-7 8 8 44 85 79 171 l65 157 5 -202 5 -202 55 0 55 0 0 289 0 289 -74 0 -75 0
-30 -71 c-17 -39 -51 -119 -75 -178 -25 -58 -48 -103 -51 -99 -4 5 -29 61 -56
126 -26 64 -51 117 -56 117 -4 0 -5 6 -2 14 3 7 -2 21 -11 29 -9 9 -15 18 -14
19 2 2 0 13 -3 26 -6 20 -12 22 -75 22 -38 0 -73 -3 -76 -7z"/>
<path d="M2360 461 l0 -291 154 0 c149 0 155 1 207 28 197 102 177 440 -30
530 -25 11 -80 17 -183 20 l-148 4 0 -291z m272 179 c80 -23 137 -148 108
-243 -28 -96 -76 -129 -189 -131 l-76 -1 -3 193 -2 192 62 0 c35 0 80 -5 100
-10z"/>
<path d="M3414 599 c-56 -13 -95 -56 -101 -112 -9 -81 31 -125 136 -148 92
-20 119 -71 51 -99 -35 -14 -66 -6 -102 28 -24 22 -32 24 -59 16 -38 -11 -46
-26 -25 -47 8 -8 13 -17 10 -20 -3 -3 13 -18 37 -34 84 -55 227 -30 258 46 25
60 11 134 -32 161 -12 7 -55 23 -96 34 -79 23 -104 44 -85 73 17 27 88 29 113
4 26 -26 86 -29 95 -5 8 21 -20 68 -53 86 -35 21 -97 27 -147 17z"/>
<path d="M1878 595 c-3 -3 31 -92 74 -198 44 -106 82 -202 85 -213 7 -30 -24
-74 -52 -74 -24 0 -35 -22 -35 -72 0 -27 2 -28 51 -28 91 0 82 -14 223 347 47
123 86 227 86 233 0 14 -96 12 -108 -2 -6 -7 -29 -67 -51 -133 -23 -66 -44
-127 -47 -135 -3 -8 -28 44 -56 120 -28 74 -55 141 -61 148 -9 12 -98 17 -109
7z"/>
<path d="M2992 579 c-59 -29 -93 -99 -56 -113 33 -13 60 -5 86 24 47 54 128
29 128 -39 0 -28 -1 -28 -71 -35 -90 -8 -133 -27 -159 -68 -28 -44 -23 -118
10 -153 49 -52 144 -56 195 -9 32 30 35 30 35 -1 0 -23 3 -25 46 -23 l46 1 -4
171 c-3 191 -13 222 -74 251 -47 22 -131 19 -182 -6z m160 -261 c-9 -63 -71
-98 -125 -71 -23 12 -28 20 -25 46 2 27 9 34 38 44 19 7 53 12 76 12 40 1 40
1 36 -31z"/>
</g>
</svg>
